<svg width="40" height="40" viewBox="0 0 40 40" fill="none" xmlns="http://www.w3.org/2000/svg">
<path d="M8.00183 35.9635C11.4535 38.5824 15.6673 40 20 40C24.3328 40 28.5466 38.5824 31.9983 35.9635C31.9897 32.7869 30.7218 29.7434 28.4726 27.5003C26.2235 25.2572 23.1766 23.9976 20 23.9976C16.8235 23.9976 13.7766 25.2572 11.5274 27.5003C9.27827 29.7434 8.0104 32.7869 8.00183 35.9635Z" fill="black"/>
<path d="M20 4.94152e-06C16.0351 -0.00278256 12.1589 1.17381 8.8646 3.38011C5.57026 5.58642 3.00659 8.72274 1.4997 12.3901C-0.00719676 16.0575 -0.389218 20.0903 0.402225 23.9754C1.19367 27.8605 3.12281 31.4224 5.94426 34.2081C6.28261 31.5872 7.3454 29.1128 9.01313 27.0629C10.6809 25.0131 12.8874 23.4691 15.3846 22.6047C13.8856 21.6128 12.746 20.1643 12.1348 18.4739C11.5235 16.7836 11.4732 14.9412 11.9911 13.22C12.509 11.4987 13.5677 9.99014 15.0103 8.91776C16.4528 7.84538 18.2025 7.26628 20 7.26628C21.7975 7.26628 23.5472 7.84538 24.9897 8.91776C26.4323 9.99014 27.491 11.4987 28.0089 13.22C28.5268 14.9412 28.4765 16.7836 27.8652 18.4739C27.254 20.1643 26.1144 21.6128 24.6154 22.6047C27.1126 23.4691 29.3191 25.0131 30.9869 27.0629C32.6546 29.1128 33.7174 31.5872 34.0557 34.2081C36.8772 31.4224 38.8063 27.8605 39.5978 23.9754C40.3892 20.0903 40.0072 16.0575 38.5003 12.3901C36.9934 8.72274 34.4297 5.58642 31.1354 3.38011C27.8411 1.17381 23.9649 -0.00278256 20 4.94152e-06Z" fill="black"/>
<path d="M20 21.8182C23.4142 21.8182 26.1819 19.0505 26.1819 15.6364C26.1819 12.2223 23.4142 9.45459 20 9.45459C16.5859 9.45459 13.8182 12.2223 13.8182 15.6364C13.8182 19.0505 16.5859 21.8182 20 21.8182Z" fill="black"/>
</svg>
