<svg width="31" height="40" viewBox="0 0 31 40" fill="none" xmlns="http://www.w3.org/2000/svg">
<path d="M30.2697 13.3163L22.9864 2.86674L22.9583 2.82525C22.8881 2.50329 23.4045 1.02805 23.4726 0.825728C23.5827 0.498871 23.427 0.0428408 23.085 0.0331689C22.0986 0.0052844 16.3445 0.000725003 14.4958 0C14.3229 0.000118835 14.152 0.0369633 13.9941 0.108132C13.8363 0.179301 13.6951 0.283198 13.5798 0.413052C12.5616 1.55094 11.2166 2.3913 9.9249 3.07275C8.96721 3.54742 8.04869 4.09849 7.1781 4.72071C5.50158 5.9762 4.84484 7.60341 5.37635 9.18541C5.75056 10.2993 6.77729 11.1294 7.63731 11.6192C7.17659 11.9311 6.71254 12.2714 6.25303 12.6342C4.55741 13.9349 3.0863 15.5086 1.89897 17.2921C-1.04808 21.8658 -0.522007 27.6858 3.17831 31.445C4.73002 32.9631 6.54045 34.1869 8.52277 35.0577C8.63017 35.7718 8.89061 37.6248 8.98985 39.4101C8.99869 39.5694 9.06763 39.7192 9.18254 39.8289C9.29745 39.9386 9.44963 39.9998 9.60788 40C9.61966 40 9.63145 39.9997 9.64326 39.9991L21.6118 40H21.6248C21.7892 39.9965 21.9455 39.9274 22.0593 39.8078C22.1731 39.6882 22.2351 39.5279 22.2317 39.3622C22.2317 39.3622 22.2226 38.9981 22.2241 38.9413C22.351 38.7253 22.494 38.5194 22.6519 38.3252C25.6723 34.5113 24.8497 30.6456 23.2271 27.6945C24.3381 26.131 24.0455 24.3579 23.8168 23.5434L29.5809 18.6877C30.3446 18.0437 30.8397 17.1333 30.9673 16.1378C31.095 15.1423 30.8459 14.1349 30.2697 13.3163ZM3.11417 25.625C2.99152 25.6251 2.87161 25.5885 2.76959 25.5199C2.66757 25.4512 2.58804 25.3537 2.54104 25.2395C2.49405 25.1253 2.4817 24.9996 2.50558 24.8783C2.52945 24.757 2.58846 24.6456 2.67515 24.5582C2.76184 24.4707 2.87231 24.4112 2.99259 24.387C3.11287 24.3629 3.23756 24.3752 3.35087 24.4225C3.46419 24.4698 3.56105 24.5499 3.62919 24.6527C3.69734 24.7555 3.73372 24.8763 3.73372 25C3.73377 25.1657 3.66853 25.3246 3.55234 25.4418C3.43616 25.559 3.27854 25.6249 3.11417 25.625ZM19.4011 21.0111C18.8296 17.7418 19.707 14.1906 20.7209 11.1941L24.7936 15.9216L19.4011 21.0111Z" fill="black"/>
</svg>
