<svg width="40" height="40" viewBox="0 0 40 40" fill="none" xmlns="http://www.w3.org/2000/svg">
<path d="M1.23501 23.6919C1.20239 19.9016 3.20517 17.1094 6.83235 15.9613C8.48937 15.4394 10.1855 15.1328 11.9208 15.4981C13.4931 15.8308 14.9152 16.4962 15.6459 18.0097C16.657 20.1038 16.644 22.2306 15.4436 24.279C15.0914 24.8792 14.6869 25.4467 14.2889 26.0208C13.4474 27.2408 13.3169 28.539 13.8388 29.922C14.1519 30.7505 14.589 31.5073 15.0587 32.2575C15.9786 33.7319 16.1678 35.3171 15.6263 36.9546C14.8239 39.3879 12.3905 40.5361 9.82673 39.7598C8.39151 39.3227 7.26944 38.455 6.44745 37.2351C4.0402 33.6405 2.29185 29.7524 1.41115 25.4989C1.36549 25.2706 1.32634 25.0292 1.30677 24.7944C1.27415 24.429 1.26111 24.0572 1.23501 23.6919Z" fill="black"/>
<path d="M17.7661 12.9929C17.7465 13.8801 17.4921 14.5977 16.9571 15.2044C15.9264 16.3787 14.2433 16.1699 13.5126 14.7804C12.8863 13.5865 13.1538 11.9947 14.1454 11.0814C14.7325 10.54 15.411 10.3377 16.1808 10.5922C17.0419 10.8727 17.4594 11.5511 17.6813 12.3796C17.74 12.5949 17.7465 12.8363 17.7661 12.9929Z" fill="black"/>
<path d="M12.4493 12.3992C12.4428 12.9733 12.2731 13.4887 11.8752 13.9062C11.3142 14.4933 10.4791 14.5325 9.85938 13.9975C9.02434 13.2799 8.79601 11.9165 9.35053 10.9771C9.95071 9.96589 11.1772 9.87456 11.9078 10.7944C12.2731 11.2641 12.4623 11.799 12.4493 12.3992Z" fill="black"/>
<path d="M8.63289 13.1429C8.63289 14.3107 7.95442 15.074 7.04763 15.0218C7.00849 15.0218 6.96934 15.0152 6.9302 15.0152C6.24521 14.9174 5.67113 14.2063 5.53413 13.2995C5.39713 12.3927 5.70375 11.636 6.33655 11.3294C6.85844 11.0749 7.36077 11.1336 7.8109 11.5055C8.35889 11.9491 8.61332 12.5493 8.63289 13.1429Z" fill="black"/>
<path d="M5.28628 15.074C5.27976 16.0461 4.69262 16.6854 3.9163 16.6201C3.68797 16.6006 3.48574 16.5223 3.29655 16.3983C2.50718 15.883 2.13533 14.7413 2.47457 13.8606C2.7877 13.0451 3.60317 12.7712 4.33382 13.2604C4.97967 13.6975 5.24714 14.3434 5.28628 15.074Z" fill="black"/>
<path d="M2.67026 17.1485C2.66373 17.7879 2.36364 18.2967 1.90046 18.4533C1.37856 18.6294 0.771859 18.4011 0.386961 17.8661C0.0803468 17.4421 -0.0566515 16.9724 0.021633 16.4505C0.0999175 15.9351 0.328247 15.5176 0.850143 15.348C1.33942 15.1914 1.90046 15.4067 2.24622 15.8503C2.52021 16.2026 2.67678 16.6853 2.67026 17.1485Z" fill="black"/>
<path d="M8.80908 21.0692C8.8417 21.004 8.87432 20.9387 8.91346 20.8866C9.10917 20.5995 9.37664 20.4103 9.70935 20.3255C10.1138 20.2211 10.4922 20.2864 10.8314 20.5212C11.2489 20.8083 11.4512 21.2193 11.4381 21.7281C11.4251 22.1456 11.275 22.511 11.0206 22.8437C10.8053 23.1242 10.5444 23.3656 10.2769 23.6004C9.9964 23.8483 9.71588 24.0962 9.45493 24.3637C9.2266 24.5985 9.01784 24.8464 8.83518 25.1139C8.80908 25.1531 8.80908 25.1531 8.77646 25.1139C8.56118 24.8073 8.30676 24.5268 8.03276 24.2658C7.71962 23.9592 7.37387 23.6852 7.05421 23.3851C6.79978 23.1438 6.5584 22.8893 6.39531 22.5762C6.18655 22.1783 6.10827 21.7607 6.21917 21.3171C6.32355 20.9061 6.57798 20.5995 6.95635 20.4169C7.26949 20.2668 7.59567 20.2407 7.93491 20.332C8.30676 20.4429 8.58728 20.6713 8.76994 21.0105C8.78299 21.0301 8.79603 21.0496 8.80908 21.0692Z" fill="#BDCAA5"/>
<path d="M38.4527 13.6257C38.4136 15.4328 37.9243 17.3246 37.2197 19.1643C36.2151 21.7803 35.1061 24.3507 33.5273 26.6927C32.6858 27.9452 31.655 28.989 30.1741 29.5109C27.258 30.5417 24.5311 29.113 23.8918 26.1903C23.5591 24.6768 23.8592 23.2612 24.7073 21.9695C25.177 21.2519 25.588 20.5017 25.8815 19.6993C26.3382 18.4467 26.2534 17.2463 25.5423 16.1047C25.1835 15.5241 24.7921 14.963 24.4137 14.3955C23.2003 12.5558 23.0764 10.5856 23.7287 8.5372C24.1854 7.10199 25.2357 6.22129 26.5926 5.68634C28.5236 4.92307 30.4612 5.09921 32.3987 5.66677C33.8796 6.10386 35.2431 6.76275 36.3456 7.88483C37.8591 9.43095 38.4723 11.3163 38.4527 13.6257Z" fill="black"/>
<path d="M21.9347 2.84185C21.9543 1.98725 22.2478 1.20441 23.0242 0.662938C23.7091 0.186707 24.6029 0.206278 25.2814 0.689033C26.5339 1.57626 26.9058 3.53989 26.0577 4.81854C25.2879 5.98628 23.82 6.13633 22.8415 5.14472C22.2283 4.53149 21.9347 3.77474 21.9347 2.84185Z" fill="black"/>
<path d="M30.6438 2.03955C30.6112 2.75063 30.3764 3.3769 29.8218 3.84661C29.1434 4.42722 28.1909 4.30979 27.6755 3.59871C27.0949 2.7963 27.1145 1.44589 27.7277 0.676091C28.5301 -0.335083 29.861 -0.191561 30.4155 0.969658C30.5721 1.30889 30.6569 1.66769 30.6438 2.03955Z" fill="black"/>
<path d="M34.2058 2.68522C34.1927 3.27235 34.0688 3.73554 33.7687 4.14001C33.3903 4.64886 32.901 4.96199 32.2421 4.83152C31.6158 4.70757 31.2962 4.23786 31.1396 3.66378C30.9374 2.93312 31.0874 2.25466 31.5571 1.661C31.9355 1.18477 32.4313 0.936868 33.0445 1.05429C33.6252 1.1652 33.9187 1.60229 34.1014 2.11766C34.1797 2.32642 34.2123 2.54822 34.2058 2.68522Z" fill="black"/>
<path d="M34.4146 4.96875C34.4276 4.00325 34.9299 3.23345 35.6606 2.95293C36.202 2.74417 36.6848 2.88117 37.024 3.33783C37.7221 4.27724 37.2002 5.9995 36.1042 6.39744C35.3474 6.67144 34.6298 6.2213 34.4537 5.35365C34.4211 5.20361 34.4211 5.04051 34.4146 4.96875Z" fill="black"/>
<path d="M37.0044 6.84107C37.037 6.22132 37.3175 5.62766 37.996 5.2819C38.6679 4.94267 39.3007 5.19709 39.5552 5.89513C39.777 6.50183 39.6987 7.08897 39.366 7.63696C39.0267 8.19147 38.3809 8.45895 37.8525 8.30238C37.3567 8.15886 37.0109 7.59782 37.0044 6.84107Z" fill="black"/>
<path d="M30.8983 10.3051C30.9309 10.2398 30.9636 10.1746 31.0027 10.1224C31.1984 9.83535 31.4659 9.64617 31.7986 9.56136C32.2031 9.45698 32.5814 9.52222 32.9207 9.75707C33.3382 10.0441 33.5404 10.4551 33.5274 10.964C33.5143 11.3815 33.3643 11.7468 33.1099 12.0795C32.8946 12.36 32.6336 12.6014 32.3661 12.8363C32.0856 13.0842 31.8051 13.3321 31.5442 13.5995C31.3158 13.8344 31.1071 14.0823 30.9244 14.3498C30.8983 14.3889 30.8983 14.3889 30.8657 14.3498C30.6504 14.0431 30.396 13.7626 30.122 13.5017C29.8089 13.1951 29.4631 12.9211 29.1434 12.621C28.889 12.3796 28.6476 12.1252 28.4845 11.812C28.2758 11.4141 28.1975 10.9966 28.3084 10.553C28.4128 10.142 28.6672 9.83535 29.0456 9.65269C29.3587 9.50264 29.6849 9.47655 30.0241 9.56788C30.396 9.67879 30.6765 9.90711 30.8592 10.2463C30.8787 10.2659 30.8853 10.279 30.8983 10.3051Z" fill="#BDCAA5"/>
</svg>
